# Blender 4.1.1
# www.blender.org
mtllib chest.mtl
o AmmoBox_5
v 0.375000 0.400000 -0.100000
v 0.375000 0.400000 0.100000
v 0.375000 0.350000 0.350000
v 0.375000 0.450000 0.350000
v 0.325000 0.000000 -0.750000
v 0.325000 0.300000 -0.750000
v 0.325000 0.300000 0.100000
v 0.325000 0.350000 -0.100000
v 0.325000 0.350000 -0.250000
v 0.325000 0.400000 0.100000
v 0.325000 0.350000 0.250000
v 0.325000 0.350000 0.350000
v 0.275000 0.350000 -0.700000
v 0.275000 0.300000 -0.700000
v 0.275000 0.350000 -0.100000
v 0.275000 0.300000 0.100000
v -0.275000 0.350000 -0.700000
v -0.325000 0.300000 -0.750000
v -0.325000 0.350000 -0.750000
v -0.325000 0.450000 -0.750000
v -0.325000 0.450000 -0.350000
v -0.325000 0.350000 0.250000
v -0.325000 0.450000 0.250000
v -0.325000 0.450000 0.350000
v -0.375000 0.350000 -0.350000
v -0.375000 0.500000 -0.250000
v -0.375000 0.500000 0.350000
v -0.325000 0.000000 -0.750000
v 0.325000 0.450000 -0.750000
v 0.325000 0.350000 -0.750000
v -0.275000 0.300000 -0.700000
v 0.325000 0.350000 -0.350000
v 0.375000 0.450000 -0.350000
v 0.375000 0.350000 -0.350000
v -0.375000 0.500000 -0.350000
v 0.325000 0.250000 -0.100000
v 0.325000 0.300000 -0.100000
v 0.275000 0.300000 -0.100000
v 0.325000 0.500000 0.250000
v -0.375000 0.500000 0.250000
v 0.375000 0.350000 -0.250000
v 0.375000 0.450000 -0.250000
v -0.325000 0.450000 -0.250000
v -0.325000 0.350000 -0.250000
v -0.375000 0.350000 -0.250000
v 0.325000 0.250000 0.100000
v 0.325000 0.350000 0.100000
v 0.325000 0.500000 0.350000
v -0.325000 0.350000 0.350000
v -0.375000 0.350000 0.350000
v 0.275000 0.350000 0.700000
v -0.275000 0.350000 0.700000
v 0.325000 0.000000 0.750000
v -0.325000 0.000000 0.750000
v 0.325000 0.350000 0.750000
v -0.325000 0.450000 0.750000
v 0.375000 0.250000 0.100000
v 0.375000 0.250000 -0.100000
v -0.325000 0.350000 -0.350000
v 0.275000 0.350000 0.100000
v 0.375000 0.350000 0.250000
v -0.375000 0.350000 0.250000
v -0.325000 0.350000 0.750000
v 0.275000 0.300000 0.700000
v -0.275000 0.300000 0.700000
v 0.325000 0.300000 0.750000
v -0.325000 0.300000 0.750000
v 0.325000 0.400000 -0.100000
v 0.325000 0.450000 -0.250000
v 0.375000 0.450000 0.250000
v 0.325000 0.450000 0.350000
v 0.325000 0.450000 0.750000
v 0.325000 0.500000 -0.350000
v 0.325000 0.500000 -0.250000
v 0.325000 0.450000 0.250000
v 0.325000 0.450000 -0.350000
vn 1.0000 -0.0000 -0.0000
vn -1.0000 -0.0000 -0.0000
vn -0.0000 -0.0000 -1.0000
vn -0.0000 -0.0000 1.0000
vn -0.0000 -1.0000 -0.0000
vn -0.0000 1.0000 -0.0000
vt 0.394688 0.943605
vt 0.385268 0.936533
vt 0.394688 0.936533
vt 0.385268 0.943605
vt 0.375554 0.971301
vt 0.370843 0.966587
vt 0.375554 0.966587
vt 0.370843 0.971301
vt 0.971521 0.929866
vt 0.966810 0.925151
vt 0.971521 0.925151
vt 0.966810 0.929866
vt 0.592981 0.247378
vt 0.581201 0.287444
vt 0.581201 0.216752
vt 0.592981 0.256793
vt 0.595337 0.216752
vt 0.595337 0.247378
vt 0.595337 0.256793
vt 0.595337 0.287444
vt 0.252848 0.824954
vt 0.250490 0.824954
vt 0.250490 0.817889
vt 0.252848 0.834399
vt 0.250490 0.841464
vt 0.250490 0.834399
vt 0.869927 0.503393
vt 0.865216 0.522250
vt 0.865216 0.503393
vt 0.869927 0.522250
vt 0.255203 0.817889
vt 0.255203 0.841464
vt 0.075283 0.863294
vt 0.070572 0.882150
vt 0.070572 0.863294
vt 0.075283 0.882150
vt 0.443667 0.981699
vt 0.438958 0.979341
vt 0.443667 0.979341
vt 0.438958 0.981699
vt 0.135670 0.981793
vt 0.130960 0.979435
vt 0.135670 0.979435
vt 0.130960 0.981793
vt 0.029255 0.802391
vt 0.000977 0.800035
vt 0.029255 0.800035
vt 0.000977 0.802391
vt 0.701254 0.790742
vt 0.698898 0.819020
vt 0.698898 0.790742
vt 0.701254 0.819020
vt 0.571679 0.000977
vt 0.571679 0.066932
vt 0.569322 0.000977
vt 0.569322 0.066932
vt 0.578406 0.216752
vt 0.578406 0.287447
vt 0.564269 0.216752
vt 0.564269 0.287447
vt 0.871753 0.546696
vt 0.871753 0.565552
vt 0.867042 0.546696
vt 0.867042 0.565552
vt 0.323210 0.581273
vt 0.299643 0.581273
vt 0.323210 0.576562
vt 0.299643 0.576562
vt 0.568601 0.862064
vt 0.568601 0.880921
vt 0.563890 0.862064
vt 0.563890 0.880921
vt 0.952662 0.746155
vt 0.947951 0.746155
vt 0.952662 0.739083
vt 0.947951 0.739083
vt 0.376004 0.958615
vt 0.371294 0.958615
vt 0.376004 0.951543
vt 0.371294 0.951543
vt 0.435881 0.775721
vt 0.405238 0.789854
vt 0.405238 0.775721
vt 0.435881 0.789854
vt 0.769621 0.389361
vt 0.774331 0.420008
vt 0.769621 0.420008
vt 0.774331 0.389361
vt 0.809037 0.144157
vt 0.806682 0.118230
vt 0.809037 0.118230
vt 0.806682 0.144157
vt 0.981742 0.013098
vt 0.984124 0.008436
vt 0.984124 0.013098
vt 0.981742 0.008436
vt 0.730848 0.500511
vt 0.728486 0.469804
vt 0.730848 0.469804
vt 0.735567 0.502816
vt 0.735567 0.500511
vt 0.728486 0.502816
vt 0.113588 0.811214
vt 0.115904 0.804102
vt 0.115904 0.811214
vt 0.113588 0.808842
vt 0.113588 0.806474
vt 0.113588 0.804102
vt 0.111167 0.808842
vt 0.111167 0.806474
vt 0.145975 0.983600
vt 0.148357 0.978937
vt 0.148357 0.983600
vt 0.145975 0.978937
vt 0.728013 0.328202
vt 0.725652 0.297495
vt 0.728013 0.297495
vt 0.732733 0.330507
vt 0.732733 0.328202
vt 0.725652 0.330507
vt 0.981751 0.020556
vt 0.981751 0.015893
vt 0.984132 0.020556
vt 0.984132 0.015893
vt 0.728487 0.570303
vt 0.730848 0.570303
vt 0.728487 0.601009
vt 0.723767 0.601009
vt 0.723767 0.603315
vt 0.730848 0.603315
vt 0.868883 0.956663
vt 0.875917 0.956663
vt 0.868883 0.959058
vt 0.871229 0.959058
vt 0.873572 0.959058
vt 0.875917 0.959058
vt 0.871229 0.961348
vt 0.873572 0.961348
vt 0.981759 0.028013
vt 0.981759 0.023351
vt 0.984141 0.028013
vt 0.984141 0.023351
vt 0.730370 0.433997
vt 0.732731 0.433997
vt 0.730370 0.464704
vt 0.725651 0.464704
vt 0.725651 0.467009
vt 0.732731 0.467009
vt 0.304048 0.356624
vt 0.301692 0.356624
vt 0.304048 0.330697
vt 0.301692 0.330697
vt 0.402443 0.768161
vt 0.402443 0.782293
vt 0.371801 0.768161
vt 0.371801 0.782293
vt 0.774277 0.134755
vt 0.778987 0.134755
vt 0.774277 0.165402
vt 0.778987 0.165402
vt 0.363917 0.568583
vt 0.434584 0.537942
vt 0.434584 0.568583
vt 0.363917 0.537942
vt 0.944865 0.194447
vt 0.942483 0.185125
vt 0.944865 0.185125
vt 0.942483 0.194447
vt 0.520946 0.375565
vt 0.492512 0.373195
vt 0.523263 0.373195
vt 0.494829 0.375565
vt 0.523263 0.392178
vt 0.492512 0.392178
vt 0.525685 0.396917
vt 0.525685 0.392178
vt 0.523263 0.396917
vt 0.492512 0.396917
vt 0.490090 0.392178
vt 0.490090 0.396917
vt 0.523263 0.404025
vt 0.520946 0.404025
vt 0.523263 0.420638
vt 0.520946 0.413503
vt 0.523263 0.413503
vt 0.492512 0.420638
vt 0.525685 0.425377
vt 0.525685 0.420638
vt 0.523263 0.425377
vt 0.492512 0.425377
vt 0.490090 0.420638
vt 0.490090 0.425377
vt 0.520946 0.441989
vt 0.494829 0.441989
vt 0.523263 0.444359
vt 0.492512 0.444359
vt 0.364709 0.571378
vt 0.364709 0.601815
vt 0.362372 0.573767
vt 0.362372 0.599426
vt 0.334298 0.571378
vt 0.334298 0.573767
vt 0.324948 0.571378
vt 0.324948 0.573767
vt 0.296848 0.573767
vt 0.296848 0.599426
vt 0.294511 0.571378
vt 0.294511 0.601815
vt 0.942900 0.091296
vt 0.945282 0.091296
vt 0.942900 0.100618
vt 0.945282 0.100618
vt 0.797954 0.303804
vt 0.797954 0.334441
vt 0.779107 0.303804
vt 0.779107 0.334441
vt 0.832035 0.984344
vt 0.832035 0.986726
vt 0.827374 0.984344
vt 0.827374 0.986726
vt 0.356448 0.537942
vt 0.356448 0.568583
vt 0.332893 0.537942
vt 0.332893 0.568583
vt 0.982862 0.277840
vt 0.985244 0.277840
vt 0.982862 0.282501
vt 0.985244 0.282501
vt 0.776312 0.322466
vt 0.776312 0.353124
vt 0.757478 0.322466
vt 0.757478 0.353124
vt 0.745861 0.583825
vt 0.745861 0.616813
vt 0.741148 0.583825
vt 0.741148 0.616813
vt 0.381358 0.762723
vt 0.348370 0.762723
vt 0.381358 0.758010
vt 0.348370 0.758010
s 1
usemtl M_Props_01
f 1/1/1 57/2/1 58/3/1
f 2/4/1 57/2/1 1/1/1
f 33/5/1 41/6/1 34/7/1
f 42/8/1 41/6/1 33/5/1
f 70/9/1 3/10/1 61/11/1
f 4/12/1 3/10/1 70/9/1
f 36/13/1 53/14/1 5/15/1
f 46/16/1 53/14/1 36/13/1
f 6/17/1 36/13/1 5/15/1
f 37/18/1 36/13/1 6/17/1
f 7/19/1 53/14/1 46/16/1
f 66/20/1 53/14/1 7/19/1
f 68/21/1 8/22/1 9/23/1
f 10/24/1 11/25/1 47/26/1
f 29/27/1 32/28/1 30/29/1
f 76/30/1 32/28/1 29/27/1
f 69/31/1 10/24/1 68/21/1
f 69/31/1 68/21/1 9/23/1
f 75/32/1 11/25/1 10/24/1
f 75/32/1 10/24/1 69/31/1
f 71/33/1 55/34/1 12/35/1
f 72/36/1 55/34/1 71/33/1
f 73/37/1 69/38/1 76/39/1
f 74/40/1 69/38/1 73/37/1
f 39/41/1 71/42/1 75/43/1
f 48/44/1 71/42/1 39/41/1
f 13/45/1 38/46/1 14/47/1
f 15/48/1 38/46/1 13/45/1
f 60/49/1 64/50/1 16/51/1
f 51/52/1 64/50/1 60/49/1
f 31/53/2 65/54/2 17/55/2
f 17/55/2 65/54/2 52/56/2
f 28/57/2 54/58/2 18/59/2
f 18/59/2 54/58/2 67/60/2
f 19/61/2 59/62/2 20/63/2
f 20/63/2 59/62/2 21/64/2
f 44/65/2 22/66/2 43/67/2
f 43/67/2 22/66/2 23/68/2
f 49/69/2 63/70/2 24/71/2
f 24/71/2 63/70/2 56/72/2
f 25/73/2 45/74/2 35/75/2
f 35/75/2 45/74/2 26/76/2
f 62/77/2 50/78/2 40/79/2
f 40/79/2 50/78/2 27/80/2
f 28/81/3 6/82/3 5/83/3
f 18/84/3 6/82/3 28/81/3
f 19/85/3 29/86/3 30/87/3
f 20/88/3 29/86/3 19/85/3
f 31/89/3 13/90/3 14/91/3
f 17/92/3 13/90/3 31/89/3
f 32/93/3 33/94/3 34/95/3
f 76/96/3 33/94/3 32/93/3
f 21/97/3 73/98/3 76/99/3
f 25/100/3 21/97/3 59/101/3
f 35/102/3 73/98/3 21/97/3
f 35/102/3 21/97/3 25/100/3
f 36/103/3 1/104/3 58/105/3
f 37/106/3 1/104/3 36/103/3
f 8/107/3 1/104/3 37/106/3
f 68/108/3 1/104/3 8/107/3
f 38/109/3 8/107/3 37/106/3
f 15/110/3 8/107/3 38/109/3
f 11/111/3 70/112/3 61/113/3
f 75/114/3 70/112/3 11/111/3
f 23/115/3 39/116/3 75/117/3
f 62/118/3 23/115/3 22/119/3
f 40/120/3 39/116/3 23/115/3
f 40/120/3 23/115/3 62/118/3
f 41/121/4 42/122/4 9/123/4
f 9/123/4 42/122/4 69/124/4
f 69/125/4 74/126/4 43/127/4
f 44/128/4 43/127/4 45/129/4
f 43/127/4 74/126/4 26/130/4
f 45/129/4 43/127/4 26/130/4
f 57/131/4 2/132/4 46/133/4
f 46/133/4 2/132/4 7/134/4
f 7/134/4 2/132/4 47/135/4
f 47/135/4 2/132/4 10/136/4
f 7/134/4 47/135/4 16/137/4
f 16/137/4 47/135/4 60/138/4
f 3/139/4 4/140/4 12/141/4
f 12/141/4 4/140/4 71/142/4
f 71/143/4 48/144/4 24/145/4
f 49/146/4 24/145/4 50/147/4
f 24/145/4 48/144/4 27/148/4
f 50/147/4 24/145/4 27/148/4
f 64/149/4 51/150/4 65/151/4
f 65/151/4 51/150/4 52/152/4
f 53/153/4 66/154/4 54/155/4
f 54/155/4 66/154/4 67/156/4
f 55/157/4 72/158/4 63/159/4
f 63/159/4 72/158/4 56/160/4
f 53/161/5 28/162/5 5/163/5
f 54/164/5 28/162/5 53/161/5
f 57/165/5 36/166/5 58/167/5
f 46/168/5 36/166/5 57/165/5
f 13/169/5 19/170/5 30/171/5
f 17/172/5 19/170/5 13/169/5
f 32/173/5 13/169/5 30/171/5
f 59/174/5 19/170/5 17/172/5
f 41/175/5 32/173/5 34/176/5
f 9/177/5 13/169/5 32/173/5
f 9/177/5 32/173/5 41/175/5
f 44/178/5 25/179/5 59/174/5
f 44/178/5 59/174/5 17/172/5
f 45/180/5 25/179/5 44/178/5
f 8/181/5 13/169/5 9/177/5
f 15/182/5 13/169/5 8/181/5
f 11/183/5 60/184/5 47/185/5
f 22/186/5 44/178/5 17/172/5
f 3/187/5 11/183/5 61/188/5
f 12/189/5 60/184/5 11/183/5
f 12/189/5 11/183/5 3/187/5
f 49/190/5 62/191/5 22/186/5
f 49/190/5 22/186/5 17/172/5
f 50/192/5 62/191/5 49/190/5
f 51/193/5 60/184/5 12/189/5
f 52/194/5 49/190/5 17/172/5
f 55/195/5 51/193/5 12/189/5
f 55/195/5 52/194/5 51/193/5
f 63/196/5 49/190/5 52/194/5
f 63/196/5 52/194/5 55/195/5
f 6/197/6 18/198/6 14/199/6
f 14/199/6 18/198/6 31/200/6
f 6/197/6 14/199/6 37/201/6
f 37/201/6 14/199/6 38/202/6
f 7/203/6 16/204/6 64/205/6
f 31/200/6 18/198/6 65/206/6
f 7/203/6 64/205/6 66/207/6
f 64/205/6 65/206/6 66/207/6
f 65/206/6 18/198/6 67/208/6
f 66/207/6 65/206/6 67/208/6
f 1/209/6 68/210/6 2/211/6
f 2/211/6 68/210/6 10/212/6
f 29/213/6 20/214/6 76/215/6
f 76/215/6 20/214/6 21/216/6
f 33/217/6 76/218/6 42/219/6
f 42/219/6 76/218/6 69/220/6
f 69/221/6 43/222/6 75/223/6
f 75/223/6 43/222/6 23/224/6
f 70/225/6 75/226/6 4/227/6
f 4/227/6 75/226/6 71/228/6
f 71/229/6 24/230/6 72/231/6
f 72/231/6 24/230/6 56/232/6
f 73/233/6 35/234/6 74/235/6
f 74/235/6 35/234/6 26/236/6
f 39/237/6 40/238/6 48/239/6
f 48/239/6 40/238/6 27/240/6
